# xmcd
# 
# Track frame offsets:
#     182
#     29777
#     55427
#     86845
#     117847
#     155452
#     184555
#     216742
# 
# Disc length: 3223
# 
# Revision: 1
# Processed by: cddbd v1.5.2PL0 Copyright (c) Steve Scherf et al.
# Submitted via: BonkEnc v1.0.6
# 
DISCID=760c9508
DTITLE=John Abercrombie - Farewell
DYEAR=1993
DGENRE=Contemporary Jazz
TTITLE0=Beautiful Love
TTITLE1=Monk Like
TTITLE2=Ralph's Piano Waltz
TTITLE3=Mother Of Pearl
TTITLE4=I Mean
TTITLE5=Opus 25
TTITLE6=Opal
TTITLE7=Farewell
EXTD=
EXTT0=
EXTT1=
EXTT2=
EXTT3=
EXTT4=
EXTT5=
EXTT6=
EXTT7=
PLAYORDER=
